<svg width="36" height="36" viewBox="0 0 36 36" fill="none" xmlns="http://www.w3.org/2000/svg">
<path fill-rule="evenodd" clip-rule="evenodd" d="M18 3.75C10.1299 3.75 3.75 10.1299 3.75 18C3.75 25.8701 10.1299 32.25 18 32.25C25.8701 32.25 32.25 25.8701 32.25 18C32.25 10.1299 25.8701 3.75 18 3.75ZM2.25 18C2.25 9.30152 9.30152 2.25 18 2.25C26.6985 2.25 33.75 9.30152 33.75 18C33.75 26.6985 26.6985 33.75 18 33.75C9.30152 33.75 2.25 26.6985 2.25 18Z" fill="#212121"/>
<path fill-rule="evenodd" clip-rule="evenodd" d="M18.75 17.5587V7.5H17.25V18C17.25 18.2724 17.3976 18.5234 17.6358 18.6557L24.3858 22.4057L25.1142 21.0944L18.75 17.5587Z" fill="#212121"/>
</svg>
