<svg aria-hidden="true" style="position: absolute; width: 0; height: 0; overflow: hidden;" version="1.1" xmlns="http://www.w3.org/2000/svg" xmlns:xlink="http://www.w3.org/1999/xlink">
<defs>

<symbol id="icon-certificate" viewBox="0 0 32 32">
<path d="M11.909 0h18.948v24.436h-0.937v-23.498h-17.621l-4.886 4.912v4.182h-0.937v-4.569l5.434-5.463z"></path>
<path d="M6.475 24.578h0.937v6.485h22.507v-5.689h0.937v6.627h-24.382v-7.422z"></path>
<path d="M11.636 5.218v-4.75h0.937v5.687h-5.629v-0.937h4.692z"></path>
<path d="M6.944 13.191c-1.294 0-2.344 1.049-2.344 2.344s1.049 2.344 2.344 2.344c1.294 0 2.344-1.049 2.344-2.344s-1.049-2.344-2.344-2.344zM3.663 15.534c0-1.812 1.469-3.281 3.281-3.281s3.281 1.469 3.281 3.281c0 1.812-1.469 3.281-3.281 3.281s-3.281-1.469-3.281-3.281z"></path>
<path d="M24.763 24.905c-0.777 0-1.406 0.63-1.406 1.406s0.63 1.406 1.406 1.406c0.777 0 1.406-0.63 1.406-1.406s-0.63-1.406-1.406-1.406zM22.419 26.311c0-1.294 1.049-2.344 2.344-2.344s2.344 1.049 2.344 2.344-1.049 2.344-2.344 2.344c-1.294 0-2.344-1.049-2.344-2.344z"></path>
<path d="M6.944 9.436l1.63 1.083 1.955 0.082 0.681 1.835 1.536 1.214-0.529 1.885 0.529 1.885-1.536 1.214-0.681 1.835-1.955 0.082-1.63 1.083-1.63-1.083-1.955-0.082-0.681-1.835-1.536-1.214 0.529-1.885-0.529-1.885 1.536-1.214 0.681-1.835 1.955-0.082 1.63-1.083zM6.944 10.562l-1.329 0.883-1.594 0.067-0.555 1.497-1.252 0.989 0.432 1.537-0.432 1.537 1.252 0.989 0.555 1.497 1.594 0.067 1.329 0.883 1.329-0.883 1.594-0.067 0.555-1.497 1.252-0.99-0.432-1.537 0.432-1.537-1.252-0.989-0.555-1.497-1.594-0.066-1.329-0.883z"></path>
<path d="M4.605 20.135h0.937v4.828l1.406-0.951 1.405 0.951v-4.741h0.937v6.508l-2.343-1.586-2.343 1.586v-6.594z"></path>
<path d="M15.385 3.343h3.281v0.937h-2.344v0.937h9.847v-0.937h-6.59v-0.937h7.527v2.812h-11.721v-2.812z"></path>
<path d="M27.103 9.905h-13.124v-0.937h13.124v0.937z"></path>
<path d="M27.103 13.655h-13.124v-0.937h13.124v0.937z"></path>
<path d="M27.103 17.405h-13.124v-0.937h13.124v0.937z"></path>
<path d="M27.103 21.155h-13.124v-0.937h13.124v0.937z"></path>
<path d="M15.706 25.598l0.448 0.335c-0.005-0.232-0.237-0.397-0.448-0.335zM15.444 24.698c0.814-0.237 1.628 0.378 1.647 1.214 0.009 0.384-0.070 0.729-0.131 0.978-0.007 0.027-0.013 0.051-0.018 0.075-0 0.001-0.001 0.003-0.001 0.004 0.233-0.062 0.582-0.183 1.096-0.385l0.343 0.872c-0.668 0.263-1.144 0.425-1.471 0.48-0.157 0.027-0.349 0.042-0.528-0.020-0.099-0.034-0.198-0.093-0.278-0.185-0.079-0.091-0.121-0.192-0.141-0.282-0.037-0.162-0.013-0.323 0.006-0.427 0.017-0.093 0.043-0.198 0.067-0.294 0.005-0.021 0.010-0.041 0.015-0.060 0.059-0.241 0.11-0.483 0.105-0.734zM15.444 24.698v0 0zM14.599 26.452c-0.362 0.436-0.591 0.884-0.638 1.139l-0.922-0.171c0.089-0.481 0.431-1.076 0.839-1.567s0.966-0.981 1.566-1.156zM14.599 26.452c0.362-0.436 0.773-0.757 1.107-0.855l-1.107 0.855z"></path>
</symbol>

<symbol id="icon-diamond" viewBox="0 0 32 32">
<path d="M31.902 10.041c-5.539-7.102-5.303-6.925-5.599-6.954l-8.671-1.168c-2.186-0.294-3.67 0.088-4.429 0.157-0.254 0.034-0.433 0.268-0.399 0.523s0.269 0.433 0.523 0.399c0.769-0.071 2.148-0.43 4.18-0.157l5.954 0.802c-0.446 0.091-7.016 1.43-7.462 1.521l-7.462-1.521 2.579-0.347c0.254-0.034 0.433-0.268 0.399-0.523s-0.269-0.433-0.523-0.399l-5.296 0.713c-0.001 0-0.002 0-0.002 0l-0.007 0.001c-0.007 0.001-0.014 0.003-0.021 0.004-0.005 0.001-0.009 0.002-0.014 0.002s-0.008 0.002-0.011 0.002c-0.005 0.001-0.011 0.003-0.016 0.004-0.008 0.002-0.016 0.004-0.024 0.007-0.003 0.001-0.006 0.002-0.010 0.004-0.001 0.001-0.003 0.001-0.004 0.002-0.005 0.002-0.009 0.003-0.014 0.005-0.008 0.003-0.016 0.007-0.025 0.011-0.004 0.002-0.007 0.003-0.011 0.005s-0.008 0.004-0.012 0.006c-0.004 0.002-0.007 0.004-0.011 0.006-0.202 0.118-0.103 0.126-5.418 6.893-0.111 0.142-0.13 0.334-0.049 0.495 0.187 0.371-0.311-0.362 9.949 13.256 0.155 0.205 0.446 0.246 0.651 0.091s0.246-0.446 0.091-0.651l-9.011-11.943 7.281 2.293c0.175 0.461 5.508 14.528 5.607 14.789l-2.566-3.401c-0.155-0.205-0.446-0.246-0.651-0.091s-0.246 0.446-0.091 0.651c2.687 3.56 2.963 3.929 2.983 3.951 0.339 0.383 0.809 0.625 1.258 0.7 0.066 0.011 0.845 0.011 0.911-0.002 0.566-0.11 1.044-0.43 1.27-0.727l9.075-12.028c0.155-0.205 0.114-0.496-0.091-0.651s-0.496-0.114-0.651 0.091l-8.681 11.506c0.277-0.731 5.403-14.252 5.607-14.789l7.281-2.293-2.901 3.844c-0.155 0.205-0.114 0.496 0.091 0.651s0.496 0.114 0.651-0.091c3.894-5.166 3.684-4.853 3.838-5.156 0.081-0.161 0.062-0.354-0.048-0.496zM16 6.344l5.609 6.398h-11.217l5.609-6.398zM1.196 10.146l4.41-5.656 2.99 7.987-7.4-2.331zM6.48 4.173c0.921 0.188 7.521 1.533 8.643 1.761l-5.594 6.382-3.049-8.143zM16.051 29.259h-0.103l-5.91-15.587h11.922l-5.91 15.587zM22.471 12.316l-5.594-6.382c0.744-0.152 7.498-1.528 8.643-1.761l-3.049 8.143zM23.404 12.477l2.99-7.987 4.41 5.656-7.4 2.331z"></path>
</symbol>

<symbol id="icon-facebook" viewBox="0 0 32 32">
<path d="M15.949 0.485c2.885 0.033 5.491 0.742 7.818 2.127 2.3 1.357 4.212 3.282 5.556 5.59 1.377 2.341 2.081 4.963 2.114 7.865-0.082 3.971-1.334 7.362-3.757 10.174s-5.527 4.552-8.739 5.219v-11.133h3.037l0.687-4.375h-4.599v-2.865c-0.026-0.594 0.162-1.178 0.53-1.645 0.368-0.469 1.016-0.715 1.943-0.739h2.777v-3.832c-0.040-0.013-0.418-0.064-1.134-0.152-0.812-0.095-1.63-0.146-2.448-0.152-1.851 0.009-3.316 0.531-4.393 1.567s-1.627 2.534-1.651 4.495v3.325h-3.5v4.375h3.5v11.133c-3.945-0.667-7.048-2.407-9.471-5.219s-3.675-6.204-3.757-10.174c0.033-2.902 0.737-5.524 2.114-7.865 1.343-2.308 3.256-4.232 5.556-5.59 2.327-1.385 4.933-2.094 7.818-2.127z"></path>
</symbol>

<symbol id="icon-instagram" viewBox="0 0 32 32">
<path d="M16 19.281c1.812 0 3.281-1.469 3.281-3.281s-1.469-3.281-3.281-3.281c-1.812 0-3.281 1.469-3.281 3.281s1.469 3.281 3.281 3.281z"></path>
<path d="M16 0.375c-8.629 0-15.625 6.996-15.625 15.625s6.996 15.625 15.625 15.625c8.629 0 15.625-6.996 15.625-15.625s-6.996-15.625-15.625-15.625zM25.654 19.971c-0.075 1.485-0.492 2.95-1.575 4.021-1.093 1.081-2.565 1.484-4.065 1.558h-8.028c-1.5-0.074-2.972-0.477-4.065-1.558-1.083-1.071-1.5-2.536-1.575-4.021v-7.943c0.075-1.485 0.492-2.95 1.575-4.021 1.093-1.081 2.565-1.484 4.065-1.558h8.028c1.5 0.074 2.972 0.477 4.065 1.558 1.083 1.071 1.5 2.536 1.575 4.021v7.943z"></path>
<path d="M19.912 8.259c-1.955-0.054-5.869-0.054-7.824 0-1.018 0.028-2.171 0.281-2.896 1.056-0.753 0.805-1.038 1.777-1.067 2.865-0.051 1.909 0 7.641 0 7.641 0.033 1.088 0.314 2.060 1.067 2.865 0.725 0.775 1.879 1.028 2.896 1.056 1.955 0.054 5.869 0.054 7.824 0 1.018-0.028 2.171-0.281 2.896-1.056 0.753-0.805 1.038-1.777 1.067-2.865v-7.641c-0.029-1.088-0.314-2.060-1.067-2.865-0.725-0.775-1.879-1.028-2.896-1.056zM16 21.086c-1.006 0-1.989-0.298-2.826-0.857s-1.488-1.353-1.873-2.282c-0.385-0.929-0.486-1.952-0.289-2.938s0.681-1.893 1.392-2.604c0.711-0.711 1.618-1.196 2.604-1.392s2.009-0.096 2.938 0.289c0.929 0.385 1.724 1.037 2.283 1.873s0.857 1.82 0.857 2.826c0 1.349-0.536 2.643-1.49 3.596s-2.247 1.49-3.596 1.49zM21.108 11.964c-0.201-0-0.398-0.060-0.565-0.172s-0.298-0.271-0.375-0.457c-0.077-0.186-0.097-0.39-0.058-0.588s0.136-0.379 0.278-0.521c0.142-0.142 0.323-0.239 0.521-0.278s0.402-0.019 0.588 0.058c0.186 0.077 0.345 0.207 0.456 0.375s0.171 0.364 0.171 0.565c0 0.134-0.026 0.266-0.077 0.389s-0.126 0.236-0.221 0.33-0.207 0.169-0.33 0.22c-0.123 0.051-0.256 0.077-0.389 0.077z"></path>
</symbol>

<symbol id="icon-medal" viewBox="0 0 32 32">
<path d="M31.853 25.489l-6.9-6.9c0.034-0.027 0.070-0.051 0.108-0.074l1.839-0.979c0.47-0.247 0.825-0.668 0.989-1.174s0.124-1.055-0.111-1.531l-0.916-1.873c-0.070-0.143-0.107-0.3-0.107-0.459s0.037-0.316 0.107-0.459l0.916-1.874c0.235-0.476 0.275-1.026 0.111-1.531s-0.519-0.927-0.989-1.174l-1.841-0.978c-0.141-0.074-0.263-0.18-0.356-0.308s-0.156-0.277-0.183-0.434l-0.361-2.054c-0.090-0.524-0.38-0.991-0.81-1.304s-0.964-0.445-1.49-0.368l-2.065 0.292c-0.157 0.022-0.318 0.008-0.469-0.041s-0.289-0.132-0.404-0.242l-1.5-1.45c-0.38-0.371-0.891-0.579-1.422-0.579s-1.042 0.208-1.422 0.579l-1.5 1.45c-0.115 0.11-0.253 0.193-0.404 0.242s-0.312 0.063-0.469 0.041l-2.066-0.292c-0.526-0.076-1.060 0.056-1.49 0.369s-0.72 0.78-0.81 1.303l-0.361 2.054c-0.027 0.157-0.090 0.305-0.183 0.434s-0.216 0.234-0.356 0.308l-1.839 0.978c-0.47 0.247-0.825 0.668-0.989 1.174s-0.124 1.055 0.111 1.531l0.916 1.874c0.070 0.143 0.107 0.3 0.107 0.459s-0.037 0.316-0.107 0.459l-0.918 1.873c-0.235 0.476-0.275 1.026-0.111 1.531s0.519 0.927 0.989 1.174l1.843 0.978c0.037 0.022 0.073 0.047 0.107 0.073l-6.9 6.9c-0.063 0.063-0.108 0.142-0.131 0.228s-0.021 0.177 0.003 0.263c0.025 0.086 0.072 0.163 0.137 0.225s0.145 0.104 0.232 0.125l4.292 0.991 0.99 4.291c0.020 0.087 0.063 0.167 0.125 0.232s0.139 0.112 0.225 0.137c0.086 0.025 0.177 0.026 0.263 0.003s0.165-0.067 0.228-0.131l7.741-7.742 0.325 0.314c0.38 0.371 0.891 0.578 1.422 0.578s1.042-0.208 1.422-0.578l0.325-0.314 7.743 7.743c0.063 0.063 0.142 0.108 0.228 0.131s0.177 0.021 0.263-0.003c0.086-0.025 0.164-0.072 0.225-0.136s0.104-0.145 0.125-0.232l0.99-4.291 4.292-0.991c0.087-0.020 0.167-0.063 0.232-0.125s0.112-0.139 0.136-0.225c0.025-0.086 0.026-0.177 0.003-0.263s-0.067-0.165-0.131-0.228zM6.441 30.509l-0.857-3.717c-0.021-0.091-0.067-0.175-0.134-0.241s-0.15-0.113-0.241-0.134l-3.717-0.857 6.035-6.035 0.313 1.788c0.090 0.523 0.381 0.991 0.81 1.303s0.964 0.445 1.49 0.369l2.065-0.292c0.158-0.022 0.318-0.008 0.469 0.042s0.289 0.132 0.404 0.242l0.456 0.44-7.093 7.093zM15.273 23.706l-1.499-1.45c-0.379-0.369-0.888-0.576-1.417-0.576-0.097 0-0.194 0.007-0.291 0.020l-2.066 0.293c-0.269 0.039-0.542-0.028-0.762-0.188s-0.368-0.399-0.413-0.667l-0.36-2.054c-0.044-0.233-0.129-0.457-0.25-0.661-0.011-0.024-0.025-0.048-0.040-0.070-0.187-0.304-0.45-0.553-0.764-0.722l-1.843-0.977c-0.24-0.126-0.422-0.341-0.506-0.599s-0.064-0.539 0.056-0.783l0.916-1.872c0.137-0.28 0.209-0.587 0.209-0.899s-0.071-0.619-0.209-0.899l-0.916-1.874c-0.12-0.243-0.14-0.524-0.056-0.783s0.266-0.473 0.506-0.599l1.842-0.977c0.276-0.145 0.514-0.351 0.697-0.603s0.306-0.543 0.359-0.85l0.361-2.054c0.044-0.268 0.192-0.508 0.412-0.668s0.493-0.228 0.762-0.188l2.065 0.292c0.308 0.044 0.622 0.017 0.919-0.079s0.566-0.259 0.789-0.476l1.5-1.45c0.194-0.19 0.455-0.296 0.727-0.296s0.532 0.106 0.726 0.296l1.5 1.45c0.223 0.217 0.493 0.38 0.789 0.477s0.61 0.124 0.918 0.079l2.066-0.293c0.269-0.040 0.542 0.028 0.762 0.187s0.368 0.399 0.413 0.667l0.361 2.054c0.053 0.307 0.175 0.598 0.359 0.849s0.421 0.458 0.697 0.604l1.843 0.978c0.241 0.126 0.422 0.341 0.506 0.599s0.064 0.539-0.056 0.783l-0.918 1.872c-0.137 0.28-0.209 0.587-0.209 0.899s0.071 0.619 0.209 0.899l0.916 1.874c0.12 0.243 0.14 0.524 0.056 0.783s-0.266 0.473-0.506 0.599l-1.842 0.977c-0.276 0.145-0.514 0.351-0.697 0.603s-0.306 0.543-0.359 0.85l-0.361 2.054c-0.045 0.268-0.193 0.507-0.412 0.667s-0.492 0.228-0.761 0.189l-2.067-0.293c-0.308-0.044-0.622-0.017-0.919 0.079s-0.566 0.259-0.789 0.476l-1.5 1.45c-0.194 0.189-0.455 0.296-0.726 0.296s-0.532-0.106-0.726-0.295zM26.791 26.416c-0.091 0.021-0.175 0.067-0.241 0.134s-0.113 0.15-0.134 0.241l-0.857 3.717-7.093-7.093 0.455-0.44c0.115-0.11 0.253-0.193 0.404-0.242s0.312-0.063 0.469-0.042l2.065 0.292c0.526 0.076 1.060-0.056 1.49-0.369s0.72-0.78 0.81-1.303l0.313-1.788 6.036 6.035-3.717 0.857z"></path>
<path d="M23.5 12.5c0-1.796-0.644-3.532-1.816-4.893-0.041-0.055-0.093-0.101-0.152-0.135s-0.125-0.055-0.193-0.063-0.137-0.001-0.202 0.019c-0.065 0.020-0.126 0.054-0.178 0.098s-0.094 0.099-0.124 0.161c-0.030 0.062-0.047 0.129-0.050 0.197s0.008 0.137 0.033 0.201c0.025 0.064 0.062 0.122 0.11 0.171 1.073 1.248 1.632 2.857 1.564 4.502s-0.758 3.202-1.931 4.357c-1.173 1.155-2.74 1.821-4.385 1.865s-3.246-0.54-4.477-1.632c-1.232-1.092-2.003-2.611-2.157-4.249s0.319-3.275 1.325-4.577c1.006-1.303 2.469-2.175 4.093-2.44s3.289 0.097 4.657 1.012c0.054 0.039 0.116 0.066 0.181 0.081s0.133 0.016 0.199 0.004c0.066-0.012 0.129-0.037 0.185-0.074s0.104-0.084 0.141-0.14c0.037-0.056 0.063-0.118 0.076-0.184s0.012-0.133-0.002-0.199c-0.014-0.065-0.041-0.127-0.079-0.182s-0.087-0.101-0.144-0.137c-1.39-0.93-3.050-1.369-4.718-1.248s-3.247 0.797-4.487 1.919c-1.24 1.122-2.069 2.626-2.356 4.274s-0.015 3.343 0.772 4.819c0.787 1.475 2.045 2.645 3.573 3.323s3.24 0.827 4.862 0.421c1.622-0.405 3.063-1.341 4.092-2.659s1.589-2.942 1.59-4.614z"></path>
<path d="M18.888 10.156l-3.896 4.103-1.866-2.126c-0.042-0.054-0.094-0.098-0.154-0.131s-0.125-0.053-0.193-0.059c-0.068-0.006-0.136 0.001-0.201 0.022s-0.124 0.055-0.176 0.1c-0.051 0.045-0.092 0.1-0.122 0.161s-0.046 0.128-0.048 0.196c-0.002 0.068 0.009 0.136 0.034 0.199s0.062 0.121 0.11 0.17l2.225 2.537c0.046 0.052 0.102 0.095 0.165 0.124s0.131 0.045 0.201 0.047h0.010c0.068 0 0.135-0.014 0.197-0.041s0.119-0.066 0.165-0.115l4.273-4.5c0.048-0.047 0.085-0.103 0.111-0.165s0.038-0.128 0.038-0.195c-0.001-0.067-0.015-0.133-0.042-0.195s-0.066-0.117-0.114-0.163c-0.049-0.046-0.106-0.082-0.169-0.106s-0.13-0.034-0.197-0.031c-0.067 0.003-0.133 0.019-0.193 0.048s-0.115 0.069-0.159 0.119h0.002z"></path>
</symbol>

<symbol id="icon-right-arrow" viewBox="0 0 32 32">
<path d="M31.633 15.115c-0-0-0.001-0.001-0.001-0.001l-6.531-6.5c-0.489-0.487-1.281-0.485-1.768 0.004s-0.485 1.281 0.004 1.768l4.385 4.364h-26.472c-0.69 0-1.25 0.56-1.25 1.25s0.56 1.25 1.25 1.25h26.472l-4.385 4.364c-0.489 0.487-0.491 1.278-0.004 1.768s1.279 0.491 1.768 0.004l6.532-6.5c0-0 0.001-0.001 0.001-0.001 0.49-0.489 0.488-1.283 0-1.77z"></path>
</symbol>

<symbol id="icon-sun-star" viewBox="0 0 32 32">
<path fill="none" stroke="#ecd8bd" style="stroke: var(--color1, #ecd8bd)" stroke-linejoin="miter" stroke-linecap="butt" stroke-miterlimit="10" stroke-width="1.9945" d="M15.999 0v32"></path>
<path fill="none" stroke="#ecd8bd" style="stroke: var(--color1, #ecd8bd)" stroke-linejoin="miter" stroke-linecap="butt" stroke-miterlimit="10" stroke-width="1.9945" d="M32 15.999h-32"></path>
<path fill="none" stroke="#ecd8bd" style="stroke: var(--color1, #ecd8bd)" stroke-linejoin="miter" stroke-linecap="butt" stroke-miterlimit="10" stroke-width="1.9945" d="M27.313 4.687l-22.626 22.626"></path>
<path fill="none" stroke="#ecd8bd" style="stroke: var(--color1, #ecd8bd)" stroke-linejoin="miter" stroke-linecap="butt" stroke-miterlimit="10" stroke-width="1.9945" d="M27.313 27.313l-22.626-22.626"></path>
<path fill="none" stroke="#ecd8bd" style="stroke: var(--color1, #ecd8bd)" stroke-linejoin="miter" stroke-linecap="butt" stroke-miterlimit="10" stroke-width="1.9945" d="M30.634 22.466l-29.27-12.932"></path>
<path fill="none" stroke="#ecd8bd" style="stroke: var(--color1, #ecd8bd)" stroke-linejoin="miter" stroke-linecap="butt" stroke-miterlimit="10" stroke-width="1.9945" d="M9.534 30.634l12.932-29.27"></path>
<path fill="none" stroke="#ecd8bd" style="stroke: var(--color1, #ecd8bd)" stroke-linejoin="miter" stroke-linecap="butt" stroke-miterlimit="10" stroke-width="1.9945" d="M30.833 10.005l-29.666 11.99"></path>
<path fill="none" stroke="#ecd8bd" style="stroke: var(--color1, #ecd8bd)" stroke-linejoin="miter" stroke-linecap="butt" stroke-miterlimit="10" stroke-width="1.9945" d="M21.995 30.833l-11.99-29.666"></path>
</symbol>

<symbol id="icon-clock" viewBox="0 0 32 32">
<path d="M16 3.333c-6.996 0-12.667 5.671-12.667 12.667s5.671 12.667 12.667 12.667c6.996 0 12.667-5.671 12.667-12.667s-5.671-12.667-12.667-12.667zM2 16c0-7.732 6.268-14 14-14s14 6.268 14 14c0 7.732-6.268 14-14 14s-14-6.268-14-14z"></path>
<path d="M16.667 15.608v-8.941h-1.333v9.333c0 0.242 0.131 0.465 0.343 0.583l6 3.333 0.647-1.166-5.657-3.143z"></path>
</symbol>

<symbol id="icon-Frame" viewBox="0 0 27 32">
<path d="M16.667 15.608v-8.941h-1.333v9.333c0 0.242 0.131 0.465 0.343 0.583l6 3.333 0.647-1.166-5.657-3.143z"></path>
</symbol>

<symbol id="icon-logo" viewBox="0 0 25 32">
<path fill="#ecd8bd" style="fill: var(--color1, #ecd8bd)" d="M25.333 24.962c0 0.114 0 0.194 0 0.304-3.419 0-6.825 0-10.273 0-0.009-0.077-0.021-0.173-0.031-0.261 0.045-0.032 0.076-0.076 0.108-0.076 0.394-0.006 0.788 0.011 1.179-0.014 0.381-0.024 0.763-0.068 1.137-0.143 0.396-0.078 0.673-0.354 0.916-0.66 0.024-1.303 0.152-0.985-0.489-2.823-0.451-1.291-0.986-2.55-1.376-3.864-0.129-0.436-0.344-0.845-0.54-1.314-0.67 0-1.369 0-2.068 0-0.683 0-1.366 0-2.050 0-0.704 0-1.407 0.009-2.112-0.002-0.673-0.010-1.35 0.046-2.091-0.040 0.106-0.148 0.173-0.241 0.242-0.339 2.62 0 5.225 0 7.841 0 0.153-0.268-0.048-0.486-0.117-0.686-0.287-0.844-0.641-1.665-0.944-2.504-0.396-1.099-0.793-2.2-1.203-3.296-0.507-1.354-0.948-2.731-1.41-4.101-0.209-0.619-0.403-1.243-0.595-1.868-0.040-0.132-0.040-0.274-0.071-0.503-0.178 0.395-0.319 0.71-0.467 1.040-0.127-0.061-0.229-0.11-0.373-0.18 0.422-1.204 0.845-2.412 1.271-3.633 0.765 0 1.507 0 2.312 0 0.068 0.107 0.194 0.246 0.253 0.407 0.432 1.171 0.84 2.351 1.277 3.52 0.424 1.133 0.878 2.255 1.307 3.386 0.4 1.056 0.779 2.121 1.176 3.178 0.301 0.798 0.62 1.59 0.923 2.386 0.317 0.834 0.624 1.671 0.937 2.507 0.307 0.816 0.615 1.633 0.922 2.449 0.314 0.835 0.624 1.672 0.942 2.504 0.404 1.056 0.727 2.144 1.236 3.157 0.16 0.32 0.337 0.647 0.573 0.91 0.164 0.182 0.431 0.302 0.673 0.378 0.303 0.097 0.629 0.118 0.986 0.179z"></path>
<path fill="#ecd8bd" style="fill: var(--color1, #ecd8bd)" d="M5.367 15.829c0.097 0.107 0.174 0.191 0.278 0.307-0.112 0.060-0.178 0.094-0.255 0.135 0.037 0.133 0.077 0.277 0.118 0.427 0.030-0.020 0.072-0.032 0.078-0.055 0.030-0.094 0.024-0.21 0.076-0.285 0.175-0.251 0.194-0.527 0.178-0.817-0.003-0.041 0.006-0.083-0.001-0.124-0.045-0.262 0.268-0.485 0.086-0.758-0.145-0.218-0.306-0.427-0.457-0.64-0.031-0.045-0.056-0.093-0.112-0.189-0.173 0.194-0.206 0.407-0.256 0.602-0.063 0.251-0.088 0.511-0.132 0.768-0.030 0.177-0.119 0.29-0.362 0.279 0.165-0.627 0.332-1.231 0.477-1.839 0.037-0.153-0.007-0.298-0.111-0.455-0.306-0.468-0.566-0.967-0.84-1.456-0.025-0.043-0.012-0.108-0.021-0.202 0.45 0.042 0.411 0.464 0.59 0.689 0.184 0.231 0.303 0.513 0.487 0.836 0.109-0.271 0.202-0.504 0.275-0.681-0.488-0.98-0.95-1.906-1.432-2.875 0.111-0.087 0.189-0.149 0.293-0.232 0.773 0.508 1.029 1.364 1.45 2.116 0.075 0.009 0.154 0.017 0.234 0.026 0.011 0.029 0.040 0.071 0.031 0.084-0.12 0.17-0.094 0.341-0.021 0.521 0.133 0.323 0.26 0.648 0.394 0.985 0.032-0.123 0.062-0.236 0.089-0.339 0.065-0.009 0.109-0.030 0.143-0.017 0.169 0.063 0.334 0.134 0.513 0.207 0.205-0.707-0.144-1.417-0.066-2.174 0.102-0.007 0.196-0.014 0.288-0.020 0.125 0.21 0.084 0.393-0.039 0.596 0.097 0.053 0.193 0.105 0.358 0.196 0-0.526 0.005-0.975-0.005-1.426-0.002-0.094-0.048-0.194-0.094-0.279-0.171-0.314-0.352-0.624-0.59-1.045-0.183 0.648-0.333 1.18-0.482 1.711-0.078-0.021-0.149-0.031-0.149-0.040 0.021-0.677 0.292-1.298 0.424-1.958-0.323-0.571-0.657-1.159-0.993-1.75 0.193-0.181 0.298-0.047 0.363 0.066 0.246 0.431 0.476 0.872 0.737 1.358 0.214-0.62 0.411-1.195 0.642-1.866 0.076 0.154 0.159 0.242 0.142 0.298-0.185 0.584-0.388 1.165-0.61 1.82 0.348 0.548 0.713 1.168 1.121 1.758 0.445 0.646 0.933 1.263 1.389 1.902 0.068 0.096 0.070 0.241-0.007 0.414-0.532-0.696-1.062-1.392-1.615-2.117 0 0.392 0 0.759 0 1.185-0.149 0.073-0.302 0.149-0.493 0.243 0 0.365 0 0.773 0 1.117-0.19 0.447-0.47 0.29-0.774 0.231 0.217 0.495 0.435 0.99 0.648 1.477-0.268 0.16-0.404 0.047-0.514-0.12-0.389-0.581-0.776-1.164-1.186-1.781-0.047 0.138-0.086 0.256-0.127 0.372-0.093 0.263-0.081 0.478 0.102 0.733 0.501 0.7 0.943 1.442 1.427 2.155 0.248 0.366 0.538 0.705 0.811 1.055 0.072 0.092 0.155 0.175 0.281 0.316-0.155 0.046-0.242 0.071-0.344 0.101-0.555-0.752-1.102-1.492-1.689-2.286-0.011 0.548-0.143 1.047 0.153 1.514 0.031 0.050 0.062 0.109 0.065 0.165 0.009 0.181 0.002 0.364 0.002 0.565-0.135 0-0.23 0-0.344 0-0.022-0.164-0.043-0.316-0.073-0.534-0.144 0.106-0.236 0.173-0.333 0.243 0 0.508 0 1.001 0 1.544-0.155 0.067-0.314 0.135-0.491 0.21 0 0.361 0 0.73 0 1.071-0.168 0.27-0.363 0.269-0.595 0.107 0.037 0.232 0.020 0.472 0.117 0.647 0.137 0.246 0.149 0.414-0.113 0.587-0.424-0.122-0.479-0.52-0.512-0.855-0.031-0.326 0.082-0.666 0.134-1.022 0.328 0.058 0.425 0.359 0.667 0.478 0.235-0.728-0.186-1.462-0.034-2.257 0.143 0.097 0.237 0.161 0.289 0.196 0.124 0.259-0.107 0.567 0.313 0.794-0.16-0.408 0.139-0.67 0.009-1.050-0.103-0.303-0.066-0.676-0.212-0.99-0.113-0.262-0.113-0.472 0.214-0.673zM5.552 11.921c0.097-0.488-0.239-0.783-0.394-1.125-0.36-0.792-0.383-0.782-0.743-0.968 0.39 0.717 0.75 1.381 1.137 2.093zM4.252 20.564c0.019-0.001 0.037-0.001 0.056-0.003 0-0.105 0-0.212 0-0.318-0.027 0.001-0.055 0.004-0.081 0.005 0.009 0.104 0.016 0.21 0.025 0.315zM6.565 13.28c-0.027 0-0.055 0-0.082-0.001 0.006 0.062 0.012 0.125 0.021 0.187 0 0.003 0.036 0.003 0.036 0.003 0.010-0.062 0.017-0.125 0.025-0.189z"></path>
<path fill="#ecd8bd" style="fill: var(--color1, #ecd8bd)" d="M0.014 25.271c-0.005-0.112-0.010-0.191-0.014-0.267 0.037-0.030 0.068-0.074 0.101-0.074 0.289-0.007 0.578-0.005 0.867-0.009 0.591-0.010 1.13-0.172 1.637-0.488 0.364-0.227 0.555-0.571 0.754-0.919 0.109-0.19 0.212-0.383 0.347-0.627 0.215 0.101 0.425 0.2 0.643 0.303 0 0.184 0 0.325 0 0.467 0.001 0.338 0.174 0.612 0.448 0.748 0.405 0.202 0.829 0.349 1.302 0.413 0.852 0.118 1.704 0.072 2.575 0.112 0 0.127 0 0.221 0 0.34-2.876 0.001-5.74 0.001-8.661 0.001z"></path>
<path fill="#ecd8bd" style="fill: var(--color1, #ecd8bd)" d="M20.009 29.455c0.139 0.072 0.248 0.122 0.352 0.181 0.716 0.414 0.88 1.48 0.278 2.014-0.231 0.205-0.528 0.355-0.876 0.35-0.888-0.011-1.776-0.004-2.662-0.004-0.106-0.437-0.135-3.79-0.043-4.965 0.65 0 1.311-0.051 1.958 0.019 0.4 0.043 0.827 0.083 1.195 0.341 0.338 0.237 0.644 0.802 0.517 1.181-0.113 0.338-0.235 0.695-0.637 0.823-0.017 0.005-0.032 0.022-0.081 0.060zM17.405 31.746c0.632 0 1.21-0.009 1.786 0.004 0.334 0.007 0.622-0.122 0.917-0.247 0.386-0.165 0.585-0.638 0.509-1.006-0.077-0.375-0.471-0.699-0.868-0.732-0.143-0.012-0.291 0.009-0.429-0.022-0.558-0.125-1.394-0.144-1.917-0.029 0.001 0.659 0.001 1.317 0.001 2.033zM17.423 27.405c0 0.697 0 1.329 0 1.983 0.585 0 1.143 0.031 1.694-0.012 0.287-0.022 0.584-0.138 0.841-0.277 0.354-0.192 0.54-0.774 0.358-1.058-0.232-0.361-0.543-0.634-1.011-0.635-0.616-0.001-1.234 0-1.882 0z"></path>
<path fill="#ecd8bd" style="fill: var(--color1, #ecd8bd)" d="M14.395 31.947c-0.231 0.12-0.386 0.024-0.472-0.158-0.144-0.304-0.255-0.624-0.388-0.934-0.031-0.072-0.094-0.13-0.15-0.205-0.927 0-1.85 0-2.826 0-0.077 0.163-0.165 0.339-0.245 0.519-0.097 0.218-0.175 0.444-0.282 0.656-0.084 0.167-0.238 0.208-0.475 0.14 0.766-1.654 1.523-3.287 2.281-4.921 0.103 0 0.183 0 0.296 0 0.75 1.624 1.506 3.264 2.261 4.903zM11.988 27.543c-0.402 0.891-0.8 1.768-1.23 2.721 0.857-0.025 1.629 0.022 2.444-0.035-0.419-0.924-0.815-1.802-1.214-2.687z"></path>
<path fill="#ecd8bd" style="fill: var(--color1, #ecd8bd)" d="M4.75 27.044c0.226-0.007 0.323 0.103 0.34 0.282 0.015 0.143 0.004 0.289 0.004 0.433 0 1.302 0 2.602 0 3.941 0.465 0.096 0.934 0.030 1.399 0.042 0.472 0.012 0.944 0.003 1.427 0.003 0.005 0.092 0.009 0.146 0.014 0.226-1.060 0-2.107 0-3.184 0 0-1.637 0-3.276 0-4.926z"></path>
<path fill="#ecd8bd" style="fill: var(--color1, #ecd8bd)" d="M7.827 8.17c0.168-0.031 0.272 0.060 0.358 0.186 0.101 0.146 0.201 0.294 0.335 0.49 0.127-0.623 0.034-1.155-0.143-1.673-0.089-0.262-0.103-0.472 0.173-0.615 0.307 0.251 0.307 0.251 0.137 0.663 0.092 0.069 0.193 0.146 0.365 0.278-0.016-0.671 0.123-1.256-0.102-1.829-0.019-0.048 0.005-0.12 0.029-0.174 0.011-0.025 0.066-0.030 0.145-0.063 0.079 0.257 0.217 0.485 0.2 0.777-0.019 0.329 0.007 0.661-0.011 0.99-0.007 0.134-0.056 0.285-0.137 0.387-0.062 0.078-0.205 0.091-0.335 0.141 0 0.354 0 0.721 0 1.13-0.127 0.074-0.257 0.15-0.378 0.221-0.329-0.267-0.604-0.505-0.636-0.91z"></path>
<path fill="#ecd8bd" style="fill: var(--color1, #ecd8bd)" d="M7.827 8.17c-0.081-0.104-0.16-0.207-0.268-0.346 0.147 0 0.257 0 0.416 0-0.061 0.143-0.104 0.244-0.148 0.346z"></path>
</symbol>


</defs>
</svg>
